<svg xmlns="http://www.w3.org/2000/svg" width="29" height="29" viewBox="0 0 29 29">
  <defs>
    <style>
      .cls-1 {
        fill: #fff;
        fill-rule: evenodd;
      }
    </style>
  </defs>
  <path id="instagram.svg" class="cls-1" d="M804.5,1038a14.5,14.5,0,1,1-14.5,14.5A14.5,14.5,0,0,1,804.5,1038Zm5.056,10.37a0.928,0.928,0,1,1-.928-0.93A0.931,0.931,0,0,1,809.556,1048.37Zm-5.056,6.71a2.58,2.58,0,1,0-2.578-2.58A2.582,2.582,0,0,0,804.5,1055.08Zm0-6.55a3.97,3.97,0,1,1-3.971,3.97A3.972,3.972,0,0,1,804.5,1048.53Zm0-2.37c-2.065,0-2.309.01-3.125,0.05a4.367,4.367,0,0,0-1.436.26,2.571,2.571,0,0,0-1.468,1.47,4.3,4.3,0,0,0-.266,1.44c-0.037.81-.045,1.06-0.045,3.12s0.008,2.31.045,3.13a4.284,4.284,0,0,0,.266,1.43,2.571,2.571,0,0,0,1.468,1.47,4.367,4.367,0,0,0,1.436.26c0.816,0.04,1.06.05,3.125,0.05s2.31-.01,3.125-0.05a4.367,4.367,0,0,0,1.436-.26,2.571,2.571,0,0,0,1.468-1.47,4.258,4.258,0,0,0,.266-1.43c0.037-.82.045-1.07,0.045-3.13s-0.008-2.31-.045-3.12a4.274,4.274,0,0,0-.266-1.44,2.571,2.571,0,0,0-1.468-1.47,4.367,4.367,0,0,0-1.436-.26C806.81,1046.17,806.565,1046.16,804.5,1046.16Zm0-1.39c2.1,0,2.364.01,3.188,0.04a5.77,5.77,0,0,1,1.878.36,3.821,3.821,0,0,1,1.37.89,3.867,3.867,0,0,1,.891,1.37,5.745,5.745,0,0,1,.36,1.88c0.038,0.83.046,1.09,0.046,3.19s-0.008,2.36-.046,3.19a5.745,5.745,0,0,1-.36,1.88,3.867,3.867,0,0,1-.891,1.37,3.821,3.821,0,0,1-1.37.89,5.77,5.77,0,0,1-1.878.36c-0.824.03-1.088,0.04-3.188,0.04s-2.364-.01-3.188-0.04a5.776,5.776,0,0,1-1.878-.36,3.818,3.818,0,0,1-1.369-.89,3.856,3.856,0,0,1-.892-1.37,5.771,5.771,0,0,1-.36-1.88c-0.037-.83-0.046-1.09-0.046-3.19s0.009-2.36.046-3.19a5.771,5.771,0,0,1,.36-1.88,3.856,3.856,0,0,1,.892-1.37,3.818,3.818,0,0,1,1.369-.89,5.776,5.776,0,0,1,1.878-.36C802.136,1044.78,802.4,1044.77,804.5,1044.77Z" transform="translate(-790 -1038)"/>
</svg>
