<svg xmlns="http://www.w3.org/2000/svg" width="29" height="29" viewBox="0 0 29 29">
  <defs>
    <style>
      .cls-1 {
        fill: #fff;
        fill-rule: evenodd;
      }
    </style>
  </defs>
  <path id="twitter.svg" class="cls-1" d="M730.5,1038a14.5,14.5,0,1,0,14.5,14.5A14.5,14.5,0,0,0,730.5,1038Zm5.9,11.88c0.006,0.12.008,0.24,0.008,0.37a8.125,8.125,0,0,1-12.5,6.84,5.115,5.115,0,0,0,.681.04,5.767,5.767,0,0,0,3.548-1.22,2.86,2.86,0,0,1-2.669-1.98,3.175,3.175,0,0,0,.538.05,3.093,3.093,0,0,0,.752-0.1,2.867,2.867,0,0,1-2.291-2.8c0-.02,0-0.03,0-0.04a2.963,2.963,0,0,0,1.293.36,2.87,2.87,0,0,1-.884-3.82,8.111,8.111,0,0,0,5.887,2.99,2.859,2.859,0,0,1,4.866-2.61,5.467,5.467,0,0,0,1.814-.69,2.844,2.844,0,0,1-1.256,1.58,5.651,5.651,0,0,0,1.641-.45A5.817,5.817,0,0,1,736.4,1049.88Z" transform="translate(-716 -1038)"/>
</svg>
