<svg xmlns="http://www.w3.org/2000/svg" width="29" height="29" viewBox="0 0 29 29">
  <defs>
    <style>
      .cls-1 {
        fill: #fff;
        fill-rule: evenodd;
      }
    </style>
  </defs>
  <path id="youtube.svg" class="cls-1" d="M840.893,1053.85v2.77a4.884,4.884,0,0,1,0,.67c-0.082.22-.449,0.45-0.594,0.03a5.753,5.753,0,0,1,0-.68l0-2.79h-1l0,2.75c0,0.42-.01.73,0,0.87a0.869,0.869,0,0,0,.258.72,1.243,1.243,0,0,0,1.537-.5v0.58H841.9v-4.42h-1.007Zm-1.4-1.54-3.218-.01v0.76h1v5.21h1v-5.19h1.208v-0.77Zm2.834-3.36a0.458,0.458,0,0,0,.445-0.47v-2.45a0.447,0.447,0,1,0-.892,0v2.45A0.46,0.46,0,0,0,842.323,1048.95Zm1.18,5.07,0-1.71h-1l0,5.92,0.826-.01,0.075-.37c1.057,0.93,1.721.29,1.719-.83l0-2.3C845.115,1053.84,844.431,1053.31,843.5,1054.02Zm0.868,3.17a0.452,0.452,0,0,1-.88,0v-2.59a0.452,0.452,0,0,1,.88,0v2.59Zm3.142-.47c0,0.03,0,.06,0,0.1v0.41a0.407,0.407,0,0,1-.413.39h-0.147a0.407,0.407,0,0,1-.413-0.39v-1.07h1.727v-0.63a9.547,9.547,0,0,0-.051-1.17c-0.124-.83-1.33-0.96-1.939-0.54a1.088,1.088,0,0,0-.422.55,2.971,2.971,0,0,0-.128.98v1.37c0,2.29,2.886,1.97,2.542,0h-0.754Zm-0.956-1.86a0.438,0.438,0,0,1,.448-0.43h0.061a0.44,0.44,0,0,1,.45.43l-0.011.53h-0.953ZM842.5,1038a14.5,14.5,0,1,0,14.5,14.5A14.5,14.5,0,0,0,842.5,1038Zm1.782,6.98H845.2v3.57a0.368,0.368,0,0,0,.735,0v-3.57h0.883v4.59H845.7l0.018-.38a0.955,0.955,0,0,1-.281.35,0.72,0.72,0,0,1-.386.11,0.667,0.667,0,0,1-.411-0.11,0.632,0.632,0,0,1-.243-0.29,1.325,1.325,0,0,1-.1-0.38c-0.013-.14-0.02-0.4-0.02-0.8v-3.09Zm-2.757.05a1.225,1.225,0,0,1,.76-0.23,1.521,1.521,0,0,1,.668.14,1.17,1.17,0,0,1,.43.38,1.562,1.562,0,0,1,.208.48,3.725,3.725,0,0,1,.055.75v1.16a6.3,6.3,0,0,1-.051.94,1.478,1.478,0,0,1-.222.56,1.028,1.028,0,0,1-.431.38,1.463,1.463,0,0,1-.608.12,1.775,1.775,0,0,1-.649-0.1,0.891,0.891,0,0,1-.413-0.32,1.372,1.372,0,0,1-.212-0.51,4.95,4.95,0,0,1-.062-0.91v-1.22a3.7,3.7,0,0,1,.114-1.03A1.128,1.128,0,0,1,841.525,1045.03Zm-2.938-1.86,0.673,2.24,0.665-2.23h1.157l-1.25,3.01v3.52h-1.058l0-3.52-1.33-3.02h1.146Zm11.148,14.56a2.276,2.276,0,0,1-2.368,2.15h-9.735a2.275,2.275,0,0,1-2.367-2.15v-4.93a2.275,2.275,0,0,1,2.367-2.15h9.735a2.276,2.276,0,0,1,2.368,2.15v4.93Z" transform="translate(-828 -1038)"/>
</svg>
